<svg width="144" height="160" viewBox="0 0 144 160" fill="none" xmlns="http://www.w3.org/2000/svg">
  <g filter="url(#filter0_di_16630_299)">
    <path d="M58.9895 3.48358C67.0339 -1.16087 76.9451 -1.16087 84.9895 3.48358L129.354 29.0975C137.398 33.7419 142.354 42.3252 142.354 51.6141V102.842C142.354 112.131 137.398 120.714 129.354 125.359L84.9895 150.972C76.9451 155.617 67.0339 155.617 58.9895 150.972L14.6249 125.359C6.58051 120.714 1.62494 112.131 1.62494 102.842V51.6141C1.62494 42.3252 6.58051 33.7419 14.6249 29.0975L58.9895 3.48358Z" fill="#F0F2FA"/>
    <path d="M59.802 4.89111C67.3437 0.536939 76.6354 0.536939 84.177 4.89111L128.541 30.5044C136.083 34.8585 140.729 42.9056 140.729 51.6138V102.842C140.729 111.55 136.083 119.598 128.541 123.952L84.177 149.565C76.6354 153.919 67.3437 153.919 59.802 149.565L15.4377 123.952C7.8962 119.598 3.25037 111.55 3.25024 102.842V51.6138C3.25037 42.9056 7.8962 34.8585 15.4377 30.5044L59.802 4.89111Z" stroke="url(#paint0_linear_16630_299)" stroke-width="3.25"/>
  </g>
  <defs>
    <filter id="filter0_di_16630_299" x="0" y="0" width="143.979" height="159.331" filterUnits="userSpaceOnUse" color-interpolation-filters="sRGB">
      <feFlood flood-opacity="0" result="BackgroundImageFix"/>
      <feColorMatrix in="SourceAlpha" type="matrix" values="0 0 0 0 0 0 0 0 0 0 0 0 0 0 0 0 0 0 127 0" result="hardAlpha"/>
      <feOffset dy="3.25"/>
      <feGaussianBlur stdDeviation="0.8125"/>
      <feComposite in2="hardAlpha" operator="out"/>
      <feColorMatrix type="matrix" values="0 0 0 0 0.298039 0 0 0 0 0.454902 0 0 0 0 0.764706 0 0 0 0.12 0"/>
      <feBlend mode="normal" in2="BackgroundImageFix" result="effect1_dropShadow_16630_299"/>
      <feBlend mode="normal" in="SourceGraphic" in2="effect1_dropShadow_16630_299" result="shape"/>
      <feColorMatrix in="SourceAlpha" type="matrix" values="0 0 0 0 0 0 0 0 0 0 0 0 0 0 0 0 0 0 127 0" result="hardAlpha"/>
      <feOffset dy="6.5"/>
      <feGaussianBlur stdDeviation="2.4375"/>
      <feComposite in2="hardAlpha" operator="arithmetic" k2="-1" k3="1"/>
      <feColorMatrix type="matrix" values="0 0 0 0 0.282353 0 0 0 0 0.443137 0 0 0 0 0.745098 0 0 0 0.05 0"/>
      <feBlend mode="normal" in2="shape" result="effect2_innerShadow_16630_299"/>
    </filter>
    <linearGradient id="paint0_linear_16630_299" x1="71.9895" y1="29.2905" x2="71.9895" y2="158.478" gradientUnits="userSpaceOnUse">
      <stop stop-color="white"/>
      <stop offset="0.131728" stop-color="white" stop-opacity="0"/>
    </linearGradient>
  </defs>
</svg>
